<svg xmlns="http://www.w3.org/2000/svg" xmlns:svg="http://www.w3.org/2000/svg" version="1.1" viewBox="10.14 10.14 79.72 79.71">
 <g>
  <path d="m86.06,42.04l-3.9,0c-0.79,-3.24 -2.07,-6.31 -3.79,-9.16l2.75,-2.75c0.72,-0.72 1.11,-1.67 1.11,-2.68s-0.39,-1.97 -1.11,-2.68l-5.89,-5.9c-1.48,-1.48 -3.88,-1.48 -5.36,0l-2.75,2.76c-2.85,-1.73 -5.93,-3 -9.16,-3.8l0,-3.9c0,-2.09 -1.7,-3.79 -3.79,-3.79l-8.34,0c-1.01,0 -1.96,0.4 -2.68,1.12s-1.11,1.67 -1.11,2.67l0,3.9c-3.24,0.8 -6.31,2.07 -9.16,3.8l-2.76,-2.76c-1.47,-1.48 -3.87,-1.48 -5.35,0l-5.9,5.9c-1.48,1.48 -1.48,3.88 0,5.35l2.75,2.76c-1.72,2.85 -2.99,5.92 -3.79,9.16l-3.9,0c-2.09,0 -3.79,1.7 -3.79,3.79l0,8.34c0,1.01 0.4,1.96 1.12,2.67c0.72,0.72 1.67,1.12 2.67,1.12l3.9,0c0.8,3.24 2.07,6.31 3.79,9.16l-2.75,2.75c-1.48,1.48 -1.48,3.88 0,5.36l5.9,5.9c0.71,0.71 1.66,1.1 2.68,1.1s1.96,-0.39 2.68,-1.1l2.75,-2.76c2.85,1.72 5.92,2.99 9.16,3.79l0,3.9c0,2.09 1.7,3.79 3.79,3.79l8.34,0c2.09,0 3.79,-1.7 3.79,-3.79l0,-3.9c3.24,-0.79 6.31,-2.07 9.16,-3.79l2.75,2.76c0.72,0.71 1.67,1.1 2.68,1.1c1.02,0 1.97,-0.39 2.68,-1.1l5.9,-5.9c0.72,-0.72 1.11,-1.67 1.11,-2.68s-0.4,-1.97 -1.11,-2.68l-2.75,-2.76c1.72,-2.84 2.99,-5.92 3.79,-9.16l3.9,0c1.01,0 1.96,-0.39 2.68,-1.11c0.71,-0.72 1.11,-1.67 1.11,-2.68l0,-8.34c0,-2.09 -1.7,-3.78 -3.79,-3.78l-0.01,0zm2.2,12.13c0,0.58 -0.23,1.13 -0.65,1.55c-0.42,0.41 -0.96,0.64 -1.55,0.64l-4.52,0c-0.02,0 -0.05,0.02 -0.07,0.02c-0.06,0 -0.11,0.01 -0.16,0.03c-0.05,0.02 -0.1,0.03 -0.14,0.05c-0.05,0.03 -0.08,0.06 -0.12,0.09s-0.08,0.06 -0.11,0.1c-0.03,0.04 -0.06,0.08 -0.09,0.13c-0.02,0.04 -0.04,0.09 -0.06,0.14c-0.01,0.03 -0.02,0.04 -0.03,0.07c-0.79,3.5 -2.16,6.8 -4.07,9.83c-0.01,0.02 -0.01,0.04 -0.02,0.07c-0.03,0.04 -0.05,0.09 -0.06,0.15c-0.02,0.05 -0.02,0.09 -0.03,0.14c0,0.05 0,0.1 0.01,0.15c0,0.05 0.01,0.1 0.02,0.15c0.02,0.05 0.04,0.09 0.06,0.14c0.03,0.04 0.06,0.09 0.09,0.13c0.02,0.02 0.02,0.04 0.04,0.06l3.2,3.19c0.41,0.41 0.64,0.97 0.64,1.55c0,0.59 -0.23,1.15 -0.64,1.56l-5.9,5.89c-0.41,0.42 -0.97,0.64 -1.55,0.64c-0.59,0 -1.14,-0.22 -1.55,-0.64l-3.2,-3.19c-0.02,-0.02 -0.04,-0.02 -0.06,-0.04c-0.04,-0.04 -0.08,-0.06 -0.13,-0.09c-0.04,-0.02 -0.09,-0.05 -0.14,-0.06c-0.05,-0.01 -0.1,-0.02 -0.15,-0.03s-0.09,0 -0.14,0s-0.1,0.02 -0.15,0.03c-0.05,0.01 -0.1,0.03 -0.15,0.06c-0.03,0.01 -0.05,0.01 -0.07,0.02c-3.02,1.91 -6.33,3.28 -9.83,4.07c-0.02,0 -0.04,0.02 -0.06,0.03c-0.05,0.01 -0.1,0.04 -0.15,0.06c-0.04,0.03 -0.09,0.05 -0.12,0.09c-0.04,0.03 -0.07,0.07 -0.1,0.1c-0.03,0.04 -0.07,0.08 -0.09,0.13c-0.02,0.04 -0.04,0.09 -0.05,0.14c-0.02,0.05 -0.03,0.1 -0.04,0.15c0,0.03 -0.01,0.05 -0.01,0.07l0,4.53c0,1.21 -0.99,2.19 -2.2,2.19l-8.34,0c-1.21,0 -2.19,-0.98 -2.19,-2.19l0,-4.53c0,-0.02 -0.01,-0.04 -0.02,-0.07c0,-0.05 -0.01,-0.1 -0.03,-0.15c-0.01,-0.05 -0.03,-0.1 -0.05,-0.14c-0.03,-0.05 -0.05,-0.09 -0.09,-0.13c-0.03,-0.03 -0.06,-0.07 -0.1,-0.1c-0.04,-0.04 -0.08,-0.06 -0.13,-0.09c-0.04,-0.02 -0.09,-0.05 -0.14,-0.06c-0.03,-0.01 -0.04,-0.03 -0.07,-0.03c-3.5,-0.79 -6.8,-2.16 -9.83,-4.07c-0.02,-0.01 -0.04,-0.02 -0.06,-0.02c-0.06,-0.03 -0.1,-0.05 -0.15,-0.06c-0.05,-0.01 -0.1,-0.03 -0.15,-0.03c-0.05,0 -0.1,0 -0.15,0c-0.05,0.01 -0.1,0.02 -0.14,0.03s-0.09,0.04 -0.14,0.06c-0.05,0.03 -0.09,0.05 -0.13,0.09c-0.02,0.02 -0.05,0.02 -0.06,0.04l-3.2,3.19c-0.41,0.42 -0.96,0.64 -1.55,0.64c-0.59,0 -1.14,-0.22 -1.55,-0.64l-5.9,-5.89c-0.85,-0.86 -0.85,-2.25 0,-3.11l3.2,-3.19c0.01,-0.02 0.02,-0.04 0.04,-0.06c0.03,-0.04 0.06,-0.09 0.09,-0.13c0.02,-0.05 0.04,-0.09 0.05,-0.14c0.02,-0.05 0.03,-0.1 0.03,-0.15s0.01,-0.1 0.01,-0.15c-0.01,-0.05 -0.02,-0.1 -0.03,-0.14c-0.02,-0.06 -0.03,-0.11 -0.06,-0.15c-0.01,-0.02 -0.01,-0.05 -0.02,-0.07c-1.91,-3.02 -3.28,-6.33 -4.07,-9.83c-0.01,-0.03 -0.03,-0.04 -0.03,-0.07c-0.02,-0.05 -0.04,-0.1 -0.07,-0.14c-0.02,-0.05 -0.05,-0.09 -0.08,-0.13c-0.03,-0.04 -0.07,-0.07 -0.11,-0.1c-0.04,-0.03 -0.08,-0.06 -0.12,-0.09c-0.05,-0.02 -0.09,-0.03 -0.14,-0.05c-0.05,-0.02 -0.1,-0.03 -0.16,-0.03c-0.02,0 -0.04,-0.02 -0.07,-0.02l-4.52,0c-0.59,0 -1.14,-0.23 -1.56,-0.64c-0.41,-0.42 -0.64,-0.97 -0.64,-1.55l0,-8.34c0,-1.21 0.98,-2.19 2.2,-2.19l4.51,0l0.01,0c0.1,0 0.19,-0.03 0.29,-0.06c0.03,-0.01 0.05,-0.03 0.08,-0.05c0.05,-0.03 0.11,-0.06 0.16,-0.1c0.02,-0.03 0.05,-0.05 0.07,-0.09c0.04,-0.04 0.07,-0.09 0.1,-0.14c0.02,-0.04 0.03,-0.07 0.04,-0.11c0.01,-0.03 0.03,-0.05 0.04,-0.07c0.79,-3.5 2.16,-6.81 4.07,-9.84c0.01,-0.02 0.01,-0.04 0.02,-0.06c0.02,-0.05 0.04,-0.1 0.06,-0.15c0.01,-0.05 0.02,-0.1 0.03,-0.15c0,-0.05 0,-0.1 -0.01,-0.15s-0.01,-0.1 -0.03,-0.15c-0.01,-0.04 -0.03,-0.09 -0.05,-0.13c-0.03,-0.05 -0.06,-0.09 -0.09,-0.14c-0.02,-0.02 -0.03,-0.04 -0.04,-0.05l-3.2,-3.2c-0.85,-0.86 -0.85,-2.25 0,-3.1l5.9,-5.9c0.86,-0.86 2.25,-0.86 3.1,0l3.2,3.2c0.04,0.03 0.08,0.05 0.13,0.08c0.03,0.02 0.05,0.05 0.09,0.06c0.11,0.05 0.22,0.09 0.34,0.09c0.09,0 0.18,-0.02 0.27,-0.05c0.02,-0.01 0.05,-0.02 0.07,-0.03c0.03,-0.01 0.06,-0.02 0.09,-0.04c3.02,-1.91 6.33,-3.28 9.83,-4.07c0.02,-0.01 0.04,-0.03 0.06,-0.03c0.05,-0.01 0.1,-0.04 0.15,-0.07c0.05,-0.02 0.09,-0.05 0.13,-0.08c0.04,-0.03 0.07,-0.07 0.1,-0.11s0.06,-0.07 0.08,-0.12c0.03,-0.04 0.04,-0.09 0.06,-0.14c0.02,-0.05 0.03,-0.1 0.03,-0.15c0,-0.03 0.02,-0.05 0.02,-0.08l0,-4.52c0,-0.58 0.23,-1.13 0.64,-1.55c0.41,-0.41 0.97,-0.64 1.55,-0.64l8.34,0c1.21,0 2.19,0.98 2.19,2.19l0,4.52c0,0.03 0.01,0.05 0.02,0.08c0,0.05 0.01,0.1 0.03,0.15c0.02,0.05 0.03,0.1 0.05,0.14c0.03,0.05 0.06,0.08 0.09,0.12c0.03,0.04 0.06,0.08 0.1,0.11c0.04,0.03 0.08,0.06 0.12,0.08c0.05,0.03 0.1,0.06 0.15,0.07c0.02,0.01 0.04,0.02 0.06,0.03c3.5,0.79 6.81,2.16 9.84,4.07c0.02,0.01 0.05,0.02 0.08,0.04c0.03,0.01 0.05,0.02 0.08,0.03c0.08,0.03 0.17,0.05 0.26,0.05c0.12,0 0.24,-0.04 0.35,-0.09c0.03,-0.01 0.06,-0.04 0.09,-0.06c0.04,-0.03 0.09,-0.05 0.13,-0.08l3.19,-3.2c0.86,-0.86 2.25,-0.86 3.11,0l5.89,5.9c0.42,0.41 0.64,0.96 0.64,1.55c0,0.59 -0.22,1.14 -0.64,1.55l-3.19,3.2c-0.02,0.01 -0.03,0.03 -0.04,0.05c-0.04,0.05 -0.06,0.09 -0.09,0.14c-0.02,0.04 -0.05,0.09 -0.06,0.13c-0.02,0.05 -0.02,0.1 -0.03,0.15s0,0.1 0,0.15s0.01,0.1 0.03,0.15c0.01,0.05 0.03,0.1 0.06,0.15c0.01,0.02 0.01,0.05 0.02,0.07c1.91,3.02 3.28,6.33 4.07,9.83c0.01,0.03 0.02,0.05 0.03,0.07c0.01,0.04 0.03,0.08 0.05,0.11c0.02,0.06 0.06,0.1 0.09,0.15c0.03,0.03 0.05,0.05 0.08,0.08c0.05,0.04 0.1,0.07 0.16,0.11c0.02,0.01 0.05,0.03 0.08,0.04c0.09,0.04 0.19,0.06 0.29,0.06l4.52,0c1.21,0 2.2,0.99 2.2,2.2l0,8.34l-0.01,-0.01zm-20.44,-22.28c-0.79,0 -1.5,0.39 -1.95,0.99c-1.59,0.01 -3.71,0.68 -6.35,1.98c-1.1,-0.71 -2.27,-1.29 -3.49,-1.74c-0.84,-3.46 -2.35,-7.42 -4.88,-7.46l-0.05,0c-2.28,0 -3.85,3.17 -4.9,6.67c-2.23,0.44 -4.33,1.3 -6.24,2.53c-0.68,-0.33 -1.32,-0.62 -1.94,-0.88l0,-0.01c0,-1.34 -1.1,-2.44 -2.45,-2.44c-0.95,0 -1.77,0.56 -2.18,1.36c-1.01,0.03 -1.8,0.33 -2.32,0.92c-1.69,1.94 0.27,5.75 2.26,8.68c-1.09,2.35 -1.68,4.92 -1.68,7.58c0,2.67 0.6,5.24 1.68,7.59c-0.35,0.52 -0.67,1.02 -0.96,1.5c-0.12,-0.02 -0.25,-0.04 -0.39,-0.04c-1.34,0 -2.44,1.1 -2.44,2.45c0,0.8 0.39,1.5 0.99,1.95c-0.21,1.19 -0.05,2.14 0.54,2.81c0.58,0.67 1.44,0.94 2.46,0.94c1.92,0 4.36,-0.96 6.44,-1.98c1.76,1.13 3.67,1.91 5.65,2.37c0.86,3.22 2.32,6.65 4.68,6.68l0.04,0c2.46,0 4.08,-3.73 5.04,-7.09c1.45,-0.47 2.84,-1.12 4.15,-1.96c1.11,0.54 2.14,0.98 3.09,1.31c0.09,1.26 1.14,2.25 2.42,2.25c1.13,0 2.08,-0.78 2.36,-1.82c0.41,-0.16 0.76,-0.39 1.03,-0.7c1.67,-1.93 -0.24,-5.72 -2.27,-8.69c2.21,-4.79 2.21,-10.35 0,-15.14c1.6,-2.36 2.6,-4.44 2.84,-6.04c0.75,-0.42 1.27,-1.21 1.27,-2.13c0,-1.35 -1.1,-2.45 -2.44,-2.45l-0.01,0.01zm0,1.59c0.47,0 0.85,0.39 0.85,0.86s-0.38,0.85 -0.85,0.85s-0.85,-0.38 -0.85,-0.85s0.38,-0.86 0.85,-0.86zm-22.67,7.84c0.47,0 0.85,0.38 0.85,0.85s-0.38,0.85 -0.85,0.85s-0.85,-0.38 -0.85,-0.85s0.38,-0.85 0.85,-0.85zm0.41,14.32c0.96,0.82 1.92,1.61 2.88,2.38c-0.88,0.66 -1.73,1.29 -2.57,1.86c-0.14,-1.36 -0.24,-2.78 -0.31,-4.24zm0.67,-1.53c-0.26,-0.22 -0.49,-0.44 -0.74,-0.66c-0.03,-1.17 -0.04,-2.34 -0.01,-3.54c0.03,-1.82 0.12,-3.62 0.26,-5.38c1.06,-0.26 1.86,-1.22 1.86,-2.36c0,-0.96 -0.57,-1.79 -1.37,-2.19c0.33,-2.4 0.75,-4.49 1.22,-6.23c0.75,-0.11 1.52,-0.18 2.29,-0.18c4.41,0 8.55,1.72 11.67,4.84c1.19,1.19 2.16,2.52 2.91,3.93c-2.4,3.34 -6.11,7.45 -11.07,11.77c-1.2,1.05 -2.37,2.01 -3.51,2.91c-1.17,-0.92 -2.34,-1.89 -3.51,-2.91zm4.88,-26.86l0.01,0c0.81,0.01 2.06,1.45 3.12,5.31c-1.45,-0.37 -2.96,-0.58 -4.49,-0.58c-0.61,0 -1.2,0.03 -1.79,0.08c1.04,-3.15 2.21,-4.81 3.15,-4.81zm-6.47,12.53c-1.11,0.23 -1.94,1.22 -1.94,2.39c0,0.99 0.6,1.84 1.45,2.22c-0.14,1.79 -0.24,3.63 -0.27,5.49c-0.01,0.71 -0.01,1.41 -0.01,2.1c-3.84,-3.58 -6.73,-6.89 -8.71,-9.66c0.76,-1.42 1.74,-2.74 2.91,-3.92c2.15,-2.14 4.78,-3.6 7.65,-4.32c-0.54,2.17 -0.89,4.3 -1.08,5.69l0,0.01zm-9.07,-6.66c0.47,0 0.85,0.38 0.85,0.85s-0.38,0.85 -0.85,0.85s-0.85,-0.38 -0.85,-0.85s0.38,-0.85 0.85,-0.85zm-3.31,1.74c0.21,-0.24 0.56,-0.34 0.92,-0.37c0.24,1.1 1.22,1.93 2.39,1.93c0.78,0 1.46,-0.37 1.91,-0.94c0.33,0.14 0.66,0.28 1,0.44c-0.53,0.42 -1.04,0.87 -1.53,1.36c-1.09,1.09 -2.01,2.3 -2.77,3.59c-1.95,-3.05 -2.6,-5.23 -1.92,-6.01zm2.14,9.14c2.41,3.22 5.71,6.75 9.51,10.18c0.07,2.34 0.23,4.6 0.47,6.71c-1.55,1.01 -2.99,1.86 -4.3,2.54c-0.69,-0.5 -1.37,-1.05 -2.01,-1.68c-3.11,-3.12 -4.83,-7.27 -4.83,-11.67c0,-2.12 0.41,-4.17 1.16,-6.08zm10.21,18.63c0.17,1.16 0.37,2.26 0.59,3.3c-1.24,-0.36 -2.43,-0.86 -3.58,-1.51c0.97,-0.53 1.97,-1.14 2.99,-1.79zm-12.63,-1.91c0.47,0 0.85,0.38 0.85,0.85s-0.38,0.85 -0.85,0.85s-0.85,-0.38 -0.85,-0.85s0.38,-0.85 0.85,-0.85zm0.28,4.57c-0.26,-0.3 -0.28,-0.79 -0.21,-1.28c1.32,-0.04 2.38,-1.11 2.38,-2.44c0,-0.64 -0.25,-1.21 -0.65,-1.65c0.13,-0.22 0.25,-0.43 0.39,-0.65c0.77,1.29 1.69,2.51 2.78,3.6c0.49,0.49 1,0.93 1.53,1.35c-3.29,1.51 -5.54,1.85 -6.22,1.07zm18.07,7.46l-0.02,0c-0.76,-0.01 -1.93,-1.3 -2.96,-4.77c0.79,0.11 1.59,0.18 2.39,0.18c1.28,0 2.56,-0.15 3.82,-0.42c-1.18,3.67 -2.44,5.01 -3.23,5.01zm4.54,-7.01c-0.25,-0.04 -0.48,0.04 -0.66,0.2c-2.38,0.67 -4.88,0.79 -7.3,0.37c-0.33,-1.41 -0.6,-2.98 -0.82,-4.65c1.2,-0.82 2.42,-1.69 3.65,-2.64c2.83,2.16 5.61,4 8.13,5.39c-0.96,0.54 -1.97,0.98 -3,1.32l0,0.01zm10.17,1.53c-0.47,0 -0.85,-0.39 -0.85,-0.86s0.38,-0.85 0.85,-0.85s0.85,0.39 0.85,0.85s-0.38,0.86 -0.85,0.86zm2.18,-1.98c0,0 -0.01,0.01 -0.01,0.01c-0.41,-0.79 -1.22,-1.33 -2.17,-1.33c-0.85,0 -1.6,0.43 -2.03,1.08c-0.64,-0.22 -1.3,-0.49 -2.01,-0.82c0.53,-0.42 1.05,-0.87 1.54,-1.36c1.1,-1.1 2.01,-2.33 2.77,-3.61c2.22,3.46 2.45,5.4 1.91,6.03zm-5.81,-3.55c-0.63,0.64 -1.32,1.19 -2.02,1.7c-2.54,-1.34 -5.4,-3.19 -8.35,-5.42c1.08,-0.86 2.17,-1.76 3.26,-2.71c4.45,-3.87 8.18,-7.82 10.78,-11.3c2.33,5.93 1.11,12.95 -3.67,17.73zm1.13,-24.46c-0.49,-0.49 -1.01,-0.94 -1.54,-1.37c1.76,-0.8 3.26,-1.29 4.39,-1.41c0.08,1.1 0.87,2.01 1.93,2.23c-0.28,1.08 -0.95,2.49 -2.01,4.16c-0.76,-1.29 -1.67,-2.51 -2.77,-3.61z"/>
 </g>
</svg>