<svg xmlns="http://www.w3.org/2000/svg" xmlns:xlink="http://www.w3.org/1999/xlink" version="1.1" x="0px" y="0px" style="enable-background:new 0 0 53 53;" xml:space="preserve" viewBox="2.29 6.32 48.42 40.37"><g><g><path d="M48.8748779,43.0161133c-0.8377686,0-1.5366211,0.5653687-1.7553711,1.3330078h-2.1867676    c-0.1896973-0.3493652-0.5039063-0.6165161-0.8862305-0.7445068V29.0899048    c2.4743652-0.2537231,4.4118652-2.3198242,4.4118652-4.861145c0-2.7125244-2.1989746-4.911499-4.9116211-4.911499    c-2.7125244,0-4.911377,2.1989746-4.911377,4.911499c0,2.5411377,1.9370117,4.6071167,4.4111328,4.861084v14.5149536    c-0.3820801,0.1280518-0.6960449,0.3951416-0.8856201,0.7443237h-8.2386475    c-0.1895752-0.3491821-0.503418-0.616272-0.885498-0.7443237V16.0898438    c2.4741211-0.2539673,4.4111328-2.3199463,4.4111328-4.861084c0-2.7125244-2.1989746-4.911499-4.911499-4.911499    s-4.911499,2.1989746-4.911499,4.911499c0,2.5413818,1.9375,4.6074219,4.4118652,4.861145v27.5147095    c-0.3824463,0.1279907-0.6965332,0.3951416-0.8862305,0.7445068h-8.2385254    c-0.1896973-0.3493042-0.5036621-0.6164551-0.8859863-0.7444458v-8.5148315    c2.4742432-0.2538452,4.411499-2.3198242,4.411499-4.861084c0-2.7125244-2.1988525-4.911499-4.911499-4.911499    c-2.7125244,0-4.911499,2.1989746-4.911499,4.911499c0,2.5412598,1.9373779,4.6072388,4.411499,4.861084v8.5148315    c-0.3823242,0.1279907-0.6962891,0.3951416-0.8859863,0.7444458h-8.2385254    c-0.1896973-0.3493652-0.5036621-0.6165771-0.8862305-0.7445068V24.0899048    c2.4743652-0.2537231,4.4118652-2.3197632,4.4118652-4.861145c0-2.7125244-2.1989746-4.911499-4.911499-4.911499    s-4.911499,2.1989746-4.911499,4.911499c0,2.5411377,1.9370728,4.6069946,4.4111328,4.8610229v19.5150146    c-0.3821411,0.1280518-0.6959229,0.3951416-0.8855591,0.7443237H5.8804321    c-0.2188721-0.7676392-0.9176636-1.3330078-1.7554932-1.3330078c-1.0125122,0-1.833313,0.8208008-1.833313,1.833313    s0.8208008,1.833313,1.833313,1.833313c0.8380737,0,1.5371094-0.5656738,1.7557373-1.3336182h3.0769043    c0.1203003,0.7549438,0.769165,1.3336182,1.5580444,1.3336182c0.7889404,0,1.4377441-0.5786743,1.5579834-1.3336182h7.8942871    c0.1203613,0.7549438,0.7692871,1.3336182,1.5581055,1.3336182s1.4377441-0.5786743,1.5581055-1.3336182h7.8942871    c0.1202393,0.7549438,0.769165,1.3336182,1.5579834,1.3336182c0.7889404,0,1.4377441-0.5786743,1.5579834-1.3336182h7.8944092    c0.1202393,0.7549438,0.769165,1.3336182,1.5579834,1.3336182s1.4377441-0.5786743,1.5581055-1.3336182h2.0144043    c0.2186279,0.7679443,0.9176025,1.3336182,1.7556152,1.3336182c1.0125732,0,1.8334961-0.8208008,1.8334961-1.833313    S49.8874512,43.0161133,48.8748779,43.0161133z"/></g></g></svg>