<svg xmlns="http://www.w3.org/2000/svg" xmlns:xlink="http://www.w3.org/1999/xlink" version="1.1" x="0px" y="0px" style="enable-background:new 0 0 53 53;" xml:space="preserve" viewBox="2.22 2.22 48.56 48.56"><g><g><path d="M50.28125,48.1799316H4.8227539V2.7214355c0-0.2763672-0.2236328-0.5-0.5-0.5s-0.5,0.2236328-0.5,0.5v3.7446289H3.25    c-0.2763672,0-0.5,0.2236328-0.5,0.5s0.2236328,0.5,0.5,0.5h0.5727539v4.09375H2.71875c-0.2763672,0-0.5,0.2236328-0.5,0.5    s0.2236328,0.5,0.5,0.5h1.1040039v4.09375H3.25c-0.2763672,0-0.5,0.2236328-0.5,0.5s0.2236328,0.5,0.5,0.5h0.5727539v4.09375    H2.71875c-0.2763672,0-0.5,0.2236328-0.5,0.5s0.2236328,0.5,0.5,0.5h1.1040039v4.09375H3.25c-0.2763672,0-0.5,0.2236328-0.5,0.5    s0.2236328,0.5,0.5,0.5h0.5727539v4.09375H2.71875c-0.2763672,0-0.5,0.2236328-0.5,0.5s0.2236328,0.5,0.5,0.5h1.1040039v5H3.25    c-0.2763672,0-0.5,0.2236328-0.5,0.5s0.2236328,0.5,0.5,0.5h0.5727539v5H2.71875c-0.2763672,0-0.5,0.2236328-0.5,0.5    s0.2236328,0.5,0.5,0.5h1.1040039v3.7451172c0,0.2763672,0.2236328,0.5,0.5,0.5h3.6669922v0.5673828    c0,0.2763672,0.2236328,0.5,0.5,0.5s0.5-0.2236328,0.5-0.5v-0.5673828h4.09375v1.0986328c0,0.2763672,0.2236328,0.5,0.5,0.5    s0.5-0.2236328,0.5-0.5v-1.0986328h4.09375v0.5673828c0,0.2763672,0.2236328,0.5,0.5,0.5s0.5-0.2236328,0.5-0.5v-0.5673828    h4.09375v1.0986328c0,0.2763672,0.2236328,0.5,0.5,0.5s0.5-0.2236328,0.5-0.5v-1.0986328h4.09375v0.5673828    c0,0.2763672,0.2236328,0.5,0.5,0.5s0.5-0.2236328,0.5-0.5v-0.5673828h4.09375v1.0986328c0,0.2763672,0.2236328,0.5,0.5,0.5    s0.5-0.2236328,0.5-0.5v-1.0986328h5v0.5673828c0,0.2763672,0.2236328,0.5,0.5,0.5s0.5-0.2236328,0.5-0.5v-0.5673828h5v1.0986328    c0,0.2763672,0.2236328,0.5,0.5,0.5s0.5-0.2236328,0.5-0.5v-1.0986328H50.28125c0.2763672,0,0.5-0.2236328,0.5-0.5    S50.5576172,48.1799316,50.28125,48.1799316z"/></g><g><circle cx="10.3511353" cy="42.2766113" r="3.0983887"/></g><g><path d="M10.3511353,36.8027954c1.7111816,0,3.0983887-1.387146,3.0983887-3.0983276    c0-1.7112427-1.387207-3.0983887-3.0983887-3.0983887s-3.0983887,1.387146-3.0983887,3.0983887    C7.2527466,35.4156494,8.6399536,36.8027954,10.3511353,36.8027954z"/></g><g><circle cx="18.4255981" cy="42.2766113" r="3.0983887"/></g><g><path d="M18.4255981,36.8027954c1.7111816,0,3.0983887-1.387146,3.0983887-3.0983276    c0-1.7112427-1.387207-3.0983887-3.0983887-3.0983887s-3.0983887,1.387146-3.0983887,3.0983887    C15.3272095,35.4156494,16.7144165,36.8027954,18.4255981,36.8027954z"/></g><g><circle cx="18.4255981" cy="25.1322632" r="3.0983887"/></g><g><path d="M26.5,45.375c1.7112427,0,3.0983887-1.387207,3.0983887-3.0983887S28.2112427,39.1782227,26.5,39.1782227    c-1.7111816,0-3.0983276,1.387207-3.0983276,3.0983887S24.7888184,45.375,26.5,45.375z"/></g><g><path d="M26.5,36.8027954c1.7112427,0,3.0983887-1.387146,3.0983887-3.0983276    c0-1.7112427-1.387146-3.0983887-3.0983887-3.0983887c-1.7111816,0-3.0983276,1.387146-3.0983276,3.0983887    C23.4016724,35.4156494,24.7888184,36.8027954,26.5,36.8027954z"/></g><g><path d="M26.5,28.2306519c1.7112427,0,3.0983887-1.387207,3.0983887-3.0983887S28.2112427,22.0338745,26.5,22.0338745    c-1.7111816,0-3.0983276,1.387207-3.0983276,3.0983887S24.7888184,28.2306519,26.5,28.2306519z"/></g><g><path d="M26.5,19.6584473c1.7112427,0,3.0983887-1.387146,3.0983887-3.0983276S28.2112427,13.461731,26.5,13.461731    c-1.7111816,0-3.0983276,1.387207-3.0983276,3.0983887S24.7888184,19.6584473,26.5,19.6584473z"/></g><g><path d="M26.5,11.0863037c1.7112427,0,3.0983887-1.387207,3.0983887-3.0983887S28.2112427,4.8895264,26.5,4.8895264    c-1.7111816,0-3.0983276,1.387207-3.0983276,3.0983887S24.7888184,11.0863037,26.5,11.0863037z"/></g><g><circle cx="34.5744629" cy="42.2766113" r="3.0983887"/></g><g><path d="M34.5744629,36.8027954c1.7111816,0,3.0983887-1.387146,3.0983887-3.0983276    c0-1.7112427-1.387207-3.0983887-3.0983887-3.0983887s-3.0983887,1.387146-3.0983887,3.0983887    C31.4760742,35.4156494,32.8632813,36.8027954,34.5744629,36.8027954z"/></g><g><path d="M42.6489258,45.375c1.7111816,0,3.0983276-1.387207,3.0983276-3.0983887s-1.387146-3.0983887-3.0983276-3.0983887    s-3.0983887,1.387207-3.0983887,3.0983887S40.9377441,45.375,42.6489258,45.375z"/></g><g><path d="M42.6489258,36.8027954c1.7111816,0,3.0983276-1.387146,3.0983276-3.0983276    c0-1.7112427-1.387146-3.0983887-3.0983276-3.0983887s-3.0983887,1.387146-3.0983887,3.0983887    C39.5505371,35.4156494,40.9377441,36.8027954,42.6489258,36.8027954z"/></g><g><path d="M42.6489258,28.2306519c1.7111816,0,3.0983276-1.387207,3.0983276-3.0983887s-1.387146-3.0983887-3.0983276-3.0983887    s-3.0983887,1.387207-3.0983887,3.0983887S40.9377441,28.2306519,42.6489258,28.2306519z"/></g><g><path d="M42.6489258,19.6584473c1.7111816,0,3.0983276-1.387146,3.0983276-3.0983276s-1.387146-3.0983887-3.0983276-3.0983887    s-3.0983887,1.387207-3.0983887,3.0983887S40.9377441,19.6584473,42.6489258,19.6584473z"/></g></g></svg>