<svg xmlns="http://www.w3.org/2000/svg" xmlns:xlink="http://www.w3.org/1999/xlink" version="1.1" x="0px" y="0px" style="enable-background:new 0 0 32 32;" xml:space="preserve" viewBox="2 2 28 28"><g><path d="M13,8c-1.6543,0-3-1.3457-3-3s1.3457-3,3-3s3,1.3457,3,3S14.6543,8,13,8z M13,4c-0.5513,0-1,0.4487-1,1s0.4487,1,1,1   s1-0.4487,1-1S13.5513,4,13,4z"/><path d="M20,8c-1.6543,0-3-1.3457-3-3s1.3457-3,3-3s3,1.3457,3,3S21.6543,8,20,8z M20,4c-0.5513,0-1,0.4487-1,1s0.4487,1,1,1   s1-0.4487,1-1S20.5513,4,20,4z"/><path d="M15,19h-4c-0.5522,0-1-0.4478-1-1v-4c0-0.5522,0.4478-1,1-1h4c0.5522,0,1,0.4478,1,1v4C16,18.5522,15.5522,19,15,19z    M12,17h2v-2h-2V17z"/><path d="M22,19h-4c-0.5522,0-1-0.4478-1-1v-4c0-0.5522,0.4478-1,1-1h4c0.5522,0,1,0.4478,1,1v4C23,18.5522,22.5522,19,22,19z    M19,17h2v-2h-2V17z"/><path d="M29,19h-4c-0.5522,0-1-0.4478-1-1v-4c0-0.5522,0.4478-1,1-1h4c0.5522,0,1,0.4478,1,1v4C30,18.5522,29.5522,19,29,19z    M26,17h2v-2h-2V17z"/><path d="M15,30h-4c-0.3467,0-0.6685-0.1797-0.8506-0.4741c-0.1821-0.2949-0.1987-0.6631-0.0439-0.9731l2-4   c0.3389-0.6777,1.4502-0.6777,1.7891,0l2,4c0.1548,0.3101,0.1382,0.6782-0.0439,0.9731C15.6685,29.8203,15.3467,30,15,30z    M12.6182,28h0.7637L13,27.2358L12.6182,28z"/><path d="M7,6H3C2.4478,6,2,5.5522,2,5s0.4478-1,1-1h4c0.5522,0,1,0.4478,1,1S7.5522,6,7,6z"/><path d="M7,17H3c-0.5522,0-1-0.4478-1-1s0.4478-1,1-1h4c0.5522,0,1,0.4478,1,1S7.5522,17,7,17z"/><path d="M7,28H3c-0.5522,0-1-0.4478-1-1s0.4478-1,1-1h4c0.5522,0,1,0.4478,1,1S7.5522,28,7,28z"/></g></svg>